<?xml version="1.0" encoding="UTF-8" standalone="no"?>
<!-- Created with Inkscape (http://www.inkscape.org/) -->

<svg
   xmlns:dc="http://purl.org/dc/elements/1.1/"
   xmlns:cc="http://creativecommons.org/ns#"
   xmlns:rdf="http://www.w3.org/1999/02/22-rdf-syntax-ns#"
   xmlns:svg="http://www.w3.org/2000/svg"
   xmlns="http://www.w3.org/2000/svg"
   xmlns:sodipodi="http://sodipodi.sourceforge.net/DTD/sodipodi-0.dtd"
   xmlns:inkscape="http://www.inkscape.org/namespaces/inkscape"
   width="16"
   height="16"
   viewBox="0 0 16 16"
   id="svg3551"
   version="1.1"
   inkscape:version="0.91 r13725"
   sodipodi:docname="linkedin.svg">
  <defs
     id="defs3553" />
  <sodipodi:namedview
     id="base"
     pagecolor="#ffffff"
     bordercolor="#666666"
     borderopacity="1.0"
     inkscape:pageopacity="0.0"
     inkscape:pageshadow="2"
     inkscape:zoom="22.4"
     inkscape:cx="15.695259"
     inkscape:cy="0.6656515"
     inkscape:document-units="px"
     inkscape:current-layer="layer1"
     showgrid="false"
     inkscape:window-width="1920"
     inkscape:window-height="1056"
     inkscape:window-x="0"
     inkscape:window-y="24"
     inkscape:window-maximized="1"
     units="px" />
  <metadata
     id="metadata3556">
    <rdf:RDF>
      <cc:Work
         rdf:about="">
        <dc:format>image/svg+xml</dc:format>
        <dc:type
           rdf:resource="http://purl.org/dc/dcmitype/StillImage" />
        <dc:title></dc:title>
      </cc:Work>
    </rdf:RDF>
  </metadata>
  <g
     inkscape:label="Layer 1"
     inkscape:groupmode="layer"
     id="layer1"
     transform="translate(0,-1036.3622)">
    <path
       style="fill:#1a1a1a;fill-opacity:1;fill-rule:nonzero;stroke:none"
       d="m 2.1888404,1036.8871 c -1.110889,0 -1.83672197,0.7291 -1.83676697,1.6876 0,0.9389 0.70460497,1.6877 1.79508197,1.6877 l 0.024,0 c 1.1331,0 1.838029,-0.7488 1.838029,-1.6877 -0.02134,-0.9585 -0.708292,-1.687 -1.819078,-1.6876 l -0.0013,0 z m 9.2924576,4.4832 c -1.72316,0 -2.4963566,0.9433 -2.9282136,1.6094 l 0,0.037 -0.024,0 c 0.0071,-0.012 0.01688,-0.025 0.024,-0.037 l 0,-1.3794 -3.24781,0 c 0.04269,0.9173 0,9.7737 0,9.7737 l 3.24781,0 0,-5.4597 c 0,-0.2922 0.02289,-0.5857 0.10864,-0.7946 0.234782,-0.5835 0.76603,-1.1875 1.6637006,-1.1875 1.175981,0 1.651063,0.8985 1.651063,2.212 l 0,5.2298 3.247815,0 0,-5.6038 c 0,-0.6642 -0.08192,-1.2453 -0.227389,-1.7546 -0.0013,0 -0.0026,-0.01 -0.0039,-0.01 -0.03848,-0.099 -0.06125,-0.1953 -0.09221,-0.2931 -0.570819,-1.589 -1.849904,-2.3458 -3.419615,-2.3458 z m -10.93720757,0.23 0,9.7737 3.24780897,0 0,-9.7737 -3.24780897,0 z m 51.95110057,13.2602 c -0.0724,0.01 -0.1449,0.017 -0.21728,0.027 l 0.23749,0 c -0.007,-0.01 -0.0135,-0.018 -0.0202,-0.027 z"
       id="path14"
       inkscape:connector-curvature="0" />
    <path
       style="fill:none"
       d="m 262.89258,509.4043 0,16.72265 c 0.24601,-0.0474 0.49205,-0.0913 0.74023,-0.1289 0.01,-0.005 0.0137,-0.0105 0.0215,-0.0137 0.0434,-0.0181 0.0861,-0.0148 0.13867,-0.0176 0.12397,-0.0618 0.24988,-0.11863 0.375,-0.17774 0.54,-0.18125 1.10776,-0.40412 1.67578,-0.49414 2.0318,-0.32201 -0.0938,0.11704 1.12695,-0.14453 1.04897,-0.17882 2.1287,-0.24424 3.11328,-0.67773 0.57899,-0.23229 1.13562,-0.33201 1.75196,-0.22461 0.65217,-0.32233 1.3051,-0.22591 2.01758,-0.17774 0.47422,-0.0137 0.94931,-0.0248 1.42382,-0.0215 0.31841,0.0621 0.68209,-0.0719 0.9961,0.004 0.64572,0.15589 0.64961,0.17403 1.07226,0.38477 0.008,-0.0175 0.004,-0.0463 0.0215,-0.0527 0.22184,-0.0792 0.84244,0.12843 0.85156,0.13085 0.11417,0.0305 0.2192,0.0879 0.33203,0.12305 0.0134,0.004 0.0438,0.008 0.043,-0.006 -10e-4,-0.0173 -0.0303,-0.0179 -0.0449,-0.0273 0.78114,0.14516 1.50365,0.48369 2.25976,0.70898 0.18296,0.0545 0.37212,0.0821 0.5586,0.12305 l 0.59765,0.19922 c 0.19026,0.098 0.37901,0.19893 0.57032,0.29492 -0.0631,-0.0182 -0.25794,-0.0431 -0.19532,-0.0234 0.3725,0.11698 0.75284,0.21146 1.12891,0.31641 2.40799,0.672 -4.01429,1.55351 -1.55273,1.99023 0.31261,0.0555 0.67143,-0.007 0.9375,0.16602 0.16574,0.1079 -0.39248,0.0732 -0.58985,0.0606 -0.36925,-0.0236 -0.63772,-0.13037 -0.94531,-0.29883 -0.063,-0.0345 -0.12001,-0.0791 -0.17969,-0.11914 -0.92748,-0.33946 0.48794,0.16229 -1.18555,-0.33399 -0.0919,-0.0273 -0.92035,-0.33463 -1.11914,-0.39843 -0.18226,-0.0585 -0.38413,-0.068 -0.55078,-0.16211 -0.0291,-0.0165 0.016,-0.0133 0.0547,-0.0117 -0.22925,-0.009 -0.32289,-0.0128 -0.67383,-0.11524 -0.0592,-0.0173 -0.12544,-0.0278 -0.17187,-0.0684 -0.0158,-0.0138 0.0677,-0.0388 0.0469,-0.041 -1.33485,-0.14549 0.2457,0.18533 -1.32031,-0.19531 -0.11133,-0.0555 -0.2001,-0.0949 -0.23242,-0.11915 -0.2427,5e-5 -0.48583,-8.2e-4 -0.72852,-0.004 -0.53507,-0.004 -1.06862,0.0207 -1.60351,0.0117 -0.18081,-0.0155 -0.36037,-0.024 -0.53907,-0.0566 -0.0956,-0.0174 -0.0295,-0.0939 -0.0781,-0.0742 -0.0965,0.0392 -0.18478,0.0947 -0.27734,0.14258 -0.35381,0.0746 -0.70246,0.19109 -1.0625,0.22461 -0.11939,0.0111 -0.46418,-0.0811 -0.34571,-0.0996 0.0634,-0.01 0.13159,6e-5 0.19141,-0.0234 0.0302,-0.0117 -0.0636,-0.009 -0.0957,-0.0137 -0.13755,0.0419 -0.27652,0.085 -0.41407,0.12695 -0.25953,0.10043 -0.51155,0.21832 -0.77734,0.30078 -0.88901,0.27582 -1.89827,0.34675 -2.81641,0.51563 -0.22868,0.04 -0.45686,0.0811 -0.68554,0.12109 -0.1189,0.002 -0.2393,-0.007 -0.35743,0.006 -0.5273,0.0612 -1.01936,0.28329 -1.52734,0.43359 -0.028,0.0162 -0.0658,0.0422 -0.0859,0.0527 -0.18783,0.0984 -0.39267,0.16452 -0.59765,0.21875 -0.12879,0.0341 -0.26741,0.0208 -0.39844,0.0449 -0.30053,0.0551 -0.59667,0.12675 -0.89453,0.19531 l 0,1.63086 c 1.20873,1.62925 1.0837,2.77626 1.06445,5.36914 0.12277,-0.27025 -0.11873,-2.39598 0.0664,-0.10351 -9.3e-4,0.52748 -0.009,1.05455 -0.006,1.58203 10e-4,0.36087 4e-5,0.72115 0,1.08203 8e-5,0.37071 -0.005,0.54819 -0.0234,0.6914 l 24.15234,0 0,-3.37304 c -0.0123,-0.002 -0.0247,-0.004 -0.0371,-0.006 -0.45075,-0.0749 -0.0591,-0.87981 0.0215,-1.35938 -0.006,-0.11327 -0.004,-0.21715 0,-0.31445 -0.001,-0.16659 -0.007,-0.33346 -0.006,-0.5 0.002,-0.34551 1.9e-4,-0.68964 0,-1.03516 2e-5,-0.0534 -10e-6,-0.10679 0,-0.16015 -0.0964,-0.24353 -0.14095,-0.44608 -0.12109,-0.82813 0.008,0.12537 0.0179,0.0345 0.0254,-0.084 -0.0511,0.0102 -0.16546,-0.40307 -0.17969,-0.4707 -0.0278,-0.13204 -0.0261,-0.26804 -0.0391,-0.40235 0.0573,-0.35529 0.0586,-0.70672 0.0469,-1.06445 -0.0269,-0.59534 -0.0162,-0.91553 0.26953,-1.49024 -9e-5,-0.003 10e-5,-0.005 0,-0.008 -0.0268,-0.009 -0.0298,0.0553 -0.0469,0.043 -0.019,-0.0137 -0.0191,-0.0471 -0.0156,-0.0703 0.0134,-0.0893 0.0344,-0.17722 0.0527,-0.26563 -3.4e-4,-0.0107 -0.002,-0.0206 -0.002,-0.0312 -0.30383,-0.55229 -0.53582,-1.02094 -0.8164,-1.75195 -0.0391,-0.10206 -0.25552,-0.76872 -0.40039,-1.21484 -0.034,-0.0597 -0.0804,-0.15496 -0.10742,-0.19727 -0.0278,-0.0435 0.0618,0.10587 0.0762,0.13477 -0.049,-0.11412 -0.0272,-0.0833 -0.0586,-0.16016 -0.11659,-0.21179 -0.22944,-0.4257 -0.34375,-0.63867 -0.52193,-1.34433 -0.58169,-2.59329 -0.43945,-3.98633 0.0152,-0.14851 -0.0282,0.29611 -0.0332,0.44531 -0.0191,-0.26371 -0.0192,-0.51603 -0.01,-0.76562 -0.29686,-0.85788 -0.56779,-1.72025 -0.79492,-2.59961 -0.0629,-0.24338 -0.42133,-0.69045 -0.17383,-0.73438 0.0396,-0.007 0.0796,-0.0106 0.11914,-0.0176 -0.0704,-0.39283 -0.14164,-0.80488 -0.30469,-1.55469 0.41365,-0.0387 0.76182,-0.0833 1.14844,-0.125 -0.30711,-0.55093 -0.5165,-1.1243 -0.71094,-2.25196 -0.0347,-0.20152 -0.048,-0.40515 -0.0527,-0.60937 -0.11758,-0.64409 -0.15136,-1.29879 -0.11719,-1.97852 -0.0421,-0.009 -0.0429,-0.06 -0.0293,-0.12304 l -22.17383,0 z m 25.23828,24.49609 c 6.7e-4,0.10086 0.001,0.20193 0.004,0.30273 0.002,-0.014 0.0101,-0.0355 0.0117,-0.0488 l 0,-0.36133 c -0.0121,0.0275 -0.0141,0.0673 -0.0156,0.10742 z m 0.004,0.30273 c -5.5e-4,0.003 -0.003,0.008 -0.004,0.0117 0.003,0.0641 0.018,0.13699 0.006,0.18555 -0.003,-0.0657 -1.4e-4,-0.13158 -0.002,-0.19727 z m -24.3418,-8.23632 c -0.004,0.002 -0.009,0.004 -0.0137,0.006 0.0308,-0.004 0.0609,-0.0115 0.0918,-0.0156 0.0263,-0.004 -0.0485,0.008 -0.0781,0.01 z m -0.0137,0.006 c -0.0492,0.007 -0.0974,0.0179 -0.14649,0.0254 -0.11135,0.0545 -0.33494,0.19454 -0.24414,0.16015 0.13486,-0.0511 0.26136,-0.12131 0.39063,-0.18554 z m 21.29882,-16.56836 c 0.003,0.0148 0.008,0.0358 0.01,0.0488 0.003,0.0295 0.005,0.0396 0.008,0.0684 0.002,-0.0389 0.003,-0.0781 0.006,-0.11718 l -0.0234,0 z m 0.4043,3.13281 c 0.0213,0.0979 0.0873,0.26159 0.23828,0.6582 -0.0987,-0.2215 -0.164,-0.43942 -0.23828,-0.6582 z m 1.04883,1.56836 c 0.01,0.0663 0.0176,0.12917 0.0273,0.19726 0.0102,-10e-4 0.0211,-0.003 0.0312,-0.004 -0.009,-0.0519 -0.0168,-0.10152 -0.0254,-0.15235 -0.0107,-0.014 -0.0225,-0.027 -0.0332,-0.041 z m -0.54883,0.0391 c -0.0368,-0.0667 0.0473,0.11721 0.084,0.21289 0.007,-7.1e-4 0.013,-0.001 0.0195,-0.002 -0.0291,-0.0581 -0.0846,-0.17672 -0.10352,-0.21094 z m 0.85938,10.26367 c 0.0147,0.0472 0.0382,0.12184 0.0273,0.0977 0.005,0.009 0.0159,0.0269 0.0234,0.041 -0.0135,-0.0415 -0.0253,-0.079 -0.0371,-0.11524 -0.004,-0.008 -0.009,-0.0155 -0.0137,-0.0234 z"
       id="rect3572"
       inkscape:connector-curvature="0" />
  </g>
</svg>
